<svg xmlns="http://www.w3.org/2000/svg" width="226" height="82" viewBox="0 0 226 82">
    <g fill="none" fill-rule="evenodd">
        <g>
            <g transform="translate(-40 -20) translate(40 20)">
                <rect width="38" height="71" x="15.5" y="11" fill="#3B43F2" rx="4"/>
                <path fill="#333" fill-rule="nonzero" d="M71.38 52.28c2.24 0 4.033-.56 5.38-1.68 1.347-1.12 2.02-2.573 2.02-4.36 0-1.44-.353-2.587-1.06-3.44-.707-.853-1.56-1.473-2.56-1.86s-2.313-.767-3.94-1.14c-1.28-.293-2.287-.567-3.02-.82-.733-.253-1.347-.627-1.84-1.12-.493-.493-.74-1.14-.74-1.94 0-1.067.367-1.913 1.1-2.54.733-.627 1.753-.94 3.06-.94 1.547 0 2.78.42 3.7 1.26.92.84 1.46 1.913 1.62 3.22h3.48c-.32-2.187-1.233-3.927-2.74-5.22-1.507-1.293-3.5-1.94-5.98-1.94-2.347 0-4.2.567-5.56 1.7-1.36 1.133-2.04 2.62-2.04 4.46 0 1.387.34 2.487 1.02 3.3.68.813 1.507 1.407 2.48 1.78.973.373 2.273.747 3.9 1.12 1.307.293 2.333.573 3.08.84.747.267 1.373.653 1.88 1.16.507.507.76 1.187.76 2.04 0 1.04-.353 1.88-1.06 2.52-.707.64-1.687.96-2.94.96-1.68 0-3.033-.413-4.06-1.24-1.027-.827-1.607-1.907-1.74-3.24h-3.52c.293 2.24 1.267 3.987 2.92 5.24 1.653 1.253 3.787 1.88 6.4 1.88zm20.2.08c1.893 0 3.553-.473 4.98-1.42 1.427-.947 2.42-2.313 2.98-4.1V52h3.64V30.04h-3.64v11.68c0 2.48-.6 4.367-1.8 5.66-1.2 1.293-2.8 1.94-4.8 1.94-1.92 0-3.44-.593-4.56-1.78-1.12-1.187-1.68-2.873-1.68-5.06V30.04h-3.64v12.8c0 3.067.787 5.42 2.36 7.06 1.573 1.64 3.627 2.46 6.16 2.46zm21.08-.36V40.44c0-2.427.653-4.167 1.96-5.22s2.987-1.58 5.04-1.58h1.12v-3.96c-1.92 0-3.573.42-4.96 1.26-1.387.84-2.44 2.02-3.16 3.54v-4.44h-3.64V52h3.64zm20.72.28c2.133 0 3.94-.533 5.42-1.6 1.48-1.067 2.513-2.493 3.1-4.28V52h3.64V30.04h-3.64v5.6c-.587-1.787-1.62-3.213-3.1-4.28-1.48-1.067-3.287-1.6-5.42-1.6-1.947 0-3.68.453-5.2 1.36s-2.713 2.213-3.58 3.92c-.867 1.707-1.3 3.707-1.3 6s.433 4.287 1.3 5.98c.867 1.693 2.06 2.993 3.58 3.9s3.253 1.36 5.2 1.36zm1.04-3.2c-2.24 0-4.033-.713-5.38-2.14-1.347-1.427-2.02-3.393-2.02-5.9 0-2.507.673-4.473 2.02-5.9 1.347-1.427 3.14-2.14 5.38-2.14 1.44 0 2.727.327 3.86.98s2.02 1.593 2.66 2.82c.64 1.227.96 2.64.96 4.24s-.32 3.007-.96 4.22c-.64 1.213-1.527 2.153-2.66 2.82-1.133.667-2.42 1-3.86 1zM154.98 52V40.36c0-2.48.6-4.367 1.8-5.66 1.2-1.293 2.8-1.94 4.8-1.94 1.92 0 3.44.587 4.56 1.76 1.12 1.173 1.68 2.853 1.68 5.04V52h3.64V39.24c0-3.093-.787-5.46-2.36-7.1-1.573-1.64-3.64-2.46-6.2-2.46-1.867 0-3.513.48-4.94 1.44-1.427.96-2.42 2.333-2.98 4.12v-5.2h-3.64V52h3.64zm31.8.28c2.8 0 5.12-.74 6.96-2.22 1.84-1.48 2.973-3.487 3.4-6.02h-3.84c-.267 1.573-.993 2.813-2.18 3.72-1.187.907-2.66 1.36-4.42 1.36-1.28 0-2.447-.293-3.5-.88s-1.9-1.487-2.54-2.7c-.64-1.213-.96-2.713-.96-4.5s.32-3.287.96-4.5c.64-1.213 1.487-2.113 2.54-2.7 1.053-.587 2.22-.88 3.5-.88 1.76 0 3.233.447 4.42 1.34 1.187.893 1.913 2.127 2.18 3.7h3.84c-.427-2.507-1.56-4.507-3.4-6-1.84-1.493-4.16-2.24-6.96-2.24-2.107 0-3.973.453-5.6 1.36-1.627.907-2.9 2.213-3.82 3.92-.92 1.707-1.38 3.707-1.38 6s.46 4.287 1.38 5.98c.92 1.693 2.193 2.993 3.82 3.9 1.627.907 3.493 1.36 5.6 1.36zm24.84 0c1.84 0 3.493-.333 4.96-1s2.66-1.6 3.58-2.8c.92-1.2 1.513-2.56 1.78-4.08h-3.88c-.267 1.493-.993 2.687-2.18 3.58-1.187.893-2.66 1.34-4.42 1.34-1.947 0-3.593-.627-4.94-1.88-1.347-1.253-2.06-3.133-2.14-5.64h17.56c.107-.56.16-1.227.16-2 0-1.84-.42-3.52-1.26-5.04-.84-1.52-2.053-2.733-3.64-3.64-1.587-.907-3.447-1.36-5.58-1.36-2.107 0-3.973.453-5.6 1.36-1.627.907-2.9 2.213-3.82 3.92-.92 1.707-1.38 3.707-1.38 6s.46 4.287 1.38 5.98c.92 1.693 2.193 2.993 3.82 3.9 1.627.907 3.493 1.36 5.6 1.36zm6.8-12.24h-14.04c.107-2.4.84-4.22 2.2-5.46 1.36-1.24 3.04-1.86 5.04-1.86 1.253 0 2.413.267 3.48.8 1.067.533 1.907 1.347 2.52 2.44s.88 2.453.8 4.08zM67.78 74v-.87h-4.575v-4.035h4.125v-.825h-4.125v-3.99h4.575v-.855h-5.64V74h5.64zm5.28.105c.83 0 1.537-.215 2.123-.645.584-.43.987-1 1.207-1.71V74h1.035v-8.19H76.39v2.25c-.22-.71-.623-1.28-1.207-1.71-.586-.43-1.293-.645-2.123-.645-.75 0-1.415.168-1.995.502-.58.336-1.032.82-1.358 1.456-.325.635-.487 1.382-.487 2.242 0 .85.162 1.593.487 2.227.326.635.78 1.123 1.366 1.463.585.34 1.247.51 1.987.51zm.27-.93c-.92 0-1.657-.293-2.212-.877-.555-.585-.833-1.383-.833-2.393 0-1.01.278-1.808.833-2.392.555-.586 1.292-.878 2.212-.878.58 0 1.103.135 1.567.405.465.27.83.652 1.096 1.147.264.496.397 1.068.397 1.718 0 .65-.133 1.222-.397 1.718-.265.495-.63.877-1.096 1.147-.465.27-.987.405-1.567.405zm9.405.93c.8 0 1.442-.208 1.927-.623.485-.415.728-.947.728-1.597 0-.53-.13-.95-.39-1.26-.26-.31-.573-.537-.938-.683-.364-.144-.847-.287-1.447-.427-.49-.11-.88-.218-1.17-.323-.29-.104-.532-.257-.727-.457-.196-.2-.293-.465-.293-.795 0-.44.153-.793.457-1.058.305-.264.728-.397 1.268-.397.63 0 1.132.172 1.507.517.376.346.593.783.653 1.313h1.005c-.12-.8-.45-1.435-.99-1.905s-1.255-.705-2.145-.705c-.84 0-1.505.205-1.995.615-.49.41-.735.95-.735 1.62 0 .51.125.913.375 1.207.25.295.552.513.907.653.356.14.828.28 1.418.42l.246.06c.395.097.716.19.962.278.294.104.542.262.742.472.2.21.3.49.3.84 0 .43-.145.78-.435 1.05-.29.27-.695.405-1.215.405-.7 0-1.255-.17-1.665-.51-.41-.34-.645-.78-.705-1.32h-1.02c.11.81.465 1.447 1.065 1.912.6.466 1.37.698 2.31.698zm6.63 3.765l4.815-12.06h-1.17l-2.625 6.825-2.85-6.825h-1.17l3.45 8.1-1.65 3.96h1.2zM102.01 74l2.49-6.96 2.46 6.96h1.11l2.415-8.19h-1.02l-1.935 7.095-2.475-7.095h-1.08l-2.46 7.095-1.95-7.095H98.5l2.415 8.19h1.095zm13.275.105c.83 0 1.538-.215 2.123-.645.585-.43.987-1 1.207-1.71V74h1.035v-8.19h-1.035v2.25c-.22-.71-.622-1.28-1.207-1.71-.585-.43-1.293-.645-2.123-.645-.75 0-1.415.168-1.995.502-.58.336-1.033.82-1.358 1.456-.325.635-.487 1.382-.487 2.242 0 .85.163 1.593.488 2.227.324.635.78 1.123 1.364 1.463.585.34 1.248.51 1.988.51zm.27-.93c-.92 0-1.658-.293-2.213-.877-.555-.585-.832-1.383-.832-2.393 0-1.01.277-1.808.832-2.392.555-.586 1.293-.878 2.213-.878.58 0 1.102.135 1.567.405.466.27.83.652 1.096 1.147.264.496.397 1.068.397 1.718 0 .65-.132 1.222-.397 1.718-.266.495-.63.877-1.096 1.147-.465.27-.987.405-1.567.405zm8.43 4.695l4.815-12.06h-1.17l-2.625 6.825-2.85-6.825h-1.17l3.45 8.1-1.65 3.96h1.2zm13.755-3.765c.78 0 1.477-.17 2.093-.51.614-.34 1.097-.825 1.447-1.455.35-.63.525-1.375.525-2.235 0-.86-.175-1.608-.525-2.243-.35-.635-.833-1.12-1.447-1.455-.615-.334-1.313-.502-2.093-.502s-1.48.168-2.1.502c-.62.336-1.107.82-1.462 1.456-.356.635-.533 1.382-.533 2.242 0 .85.177 1.593.532 2.227.356.635.843 1.123 1.463 1.463.62.34 1.32.51 2.1.51zm0-.93c-.54 0-1.04-.12-1.5-.36-.46-.24-.83-.605-1.11-1.095-.28-.49-.42-1.095-.42-1.815s.14-1.328.42-1.823c.28-.494.65-.862 1.11-1.102.46-.24.96-.36 1.5-.36.53 0 1.022.12 1.477.36.456.24.823.608 1.103 1.102.28.496.42 1.103.42 1.823s-.14 1.325-.42 1.815c-.28.49-.647.855-1.102 1.095-.456.24-.948.36-1.478.36zm7.35.825v-7.26h2.055v-.93h-2.055v-.33c0-.67.153-1.148.458-1.433.304-.284.837-.422 1.597-.412v-.93c-1.07-.04-1.855.17-2.355.63-.5.46-.75 1.15-.75 2.07v.405h-1.215v.93h1.215V74h1.05zm8.07-9.915c.23 0 .415-.065.555-.195.14-.13.21-.3.21-.51 0-.22-.07-.395-.21-.525-.14-.13-.325-.195-.555-.195-.23 0-.417.065-.563.195-.145.13-.217.305-.217.525 0 .21.072.38.218.51.144.13.332.195.562.195zm.525 9.915v-8.19h-1.065V74h1.065zm3.345 0v-4.35c0-1.02.243-1.793.727-2.318.486-.524 1.138-.787 1.958-.787.78 0 1.395.237 1.845.712.45.475.675 1.158.675 2.048V74h1.035v-4.77c0-1.17-.298-2.058-.893-2.663-.595-.604-1.367-.907-2.317-.907-.71 0-1.34.185-1.89.555-.55.37-.93.905-1.14 1.605v-2.01h-1.065V74h1.065zm11.49.105c.8 0 1.442-.208 1.927-.623.486-.415.728-.947.728-1.597 0-.53-.13-.95-.39-1.26-.26-.31-.572-.537-.938-.683-.365-.144-.847-.287-1.447-.427-.49-.11-.88-.218-1.17-.323-.29-.104-.532-.257-.727-.457-.195-.2-.293-.465-.293-.795 0-.44.153-.793.457-1.058.305-.264.728-.397 1.268-.397.63 0 1.132.172 1.507.517.375.346.593.783.653 1.313h1.005c-.12-.8-.45-1.435-.99-1.905s-1.255-.705-2.145-.705c-.84 0-1.505.205-1.995.615-.49.41-.735.95-.735 1.62 0 .51.125.913.375 1.207.25.295.552.513.907.653.356.14.828.28 1.418.42l.246.06c.395.097.716.19.962.278.294.104.542.262.742.472.2.21.3.49.3.84 0 .43-.145.78-.435 1.05-.29.27-.695.405-1.215.405-.7 0-1.255-.17-1.665-.51-.41-.34-.645-.78-.705-1.32h-1.02c.11.81.465 1.447 1.065 1.912.6.466 1.37.698 2.31.698zm7.56.045c.71 0 1.34-.185 1.89-.555.55-.37.93-.91 1.14-1.62V74h1.05v-8.19h-1.05v4.35c0 1.02-.243 1.793-.728 2.318-.484.525-1.137.787-1.957.787-.78 0-1.395-.237-1.845-.713-.45-.475-.675-1.162-.675-2.062v-4.68h-1.05v4.77c0 1.17.298 2.058.893 2.663s1.372.907 2.332.907zm7.44-.15v-4.485c0-.96.26-1.653.78-2.078.52-.424 1.175-.637 1.965-.637h.345v-1.14c-.76 0-1.405.16-1.935.48-.53.32-.915.775-1.155 1.365V65.81h-1.065V74h1.065zm7.935.105c.83 0 1.537-.215 2.122-.645.585-.43.988-1 1.208-1.71V74h1.035v-8.19h-1.035v2.25c-.22-.71-.623-1.28-1.208-1.71-.584-.43-1.292-.645-2.122-.645-.75 0-1.415.168-1.995.502-.58.336-1.032.82-1.358 1.456-.325.635-.487 1.382-.487 2.242 0 .85.162 1.593.487 2.227.326.635.78 1.123 1.365 1.463.585.34 1.248.51 1.988.51zm.27-.93c-.92 0-1.657-.293-2.213-.877-.554-.585-.832-1.383-.832-2.393 0-1.01.278-1.808.832-2.392.555-.586 1.293-.878 2.213-.878.58 0 1.102.135 1.567.405.465.27.83.652 1.095 1.147.266.496.398 1.068.398 1.718 0 .65-.132 1.222-.398 1.718-.264.495-.63.877-1.095 1.147-.465.27-.987.405-1.567.405zm7.44.825v-4.35c0-1.02.243-1.793.728-2.318.484-.524 1.137-.787 1.957-.787.78 0 1.395.237 1.845.712.45.475.675 1.158.675 2.048V74h1.035v-4.77c0-1.17-.298-2.058-.893-2.663-.595-.604-1.367-.907-2.317-.907-.71 0-1.34.185-1.89.555-.55.37-.93.905-1.14 1.605v-2.01H198.1V74h1.065zm12.075.105c1.04 0 1.903-.275 2.587-.825.685-.55 1.103-1.28 1.253-2.19h-1.095c-.11.65-.415 1.162-.915 1.537-.5.376-1.115.563-1.845.563-.53 0-1.017-.12-1.463-.36-.445-.24-.8-.608-1.065-1.102-.264-.495-.397-1.103-.397-1.823s.132-1.328.397-1.823c.266-.494.62-.862 1.065-1.102.446-.24.933-.36 1.463-.36.73 0 1.345.188 1.845.563.5.374.805.887.915 1.537h1.095c-.15-.91-.568-1.64-1.253-2.19-.684-.55-1.547-.825-2.587-.825-.78 0-1.472.168-2.078.502-.605.336-1.077.82-1.417 1.456-.34.635-.51 1.382-.51 2.242 0 .86.17 1.608.51 2.242.34.635.813 1.12 1.417 1.456.606.335 1.298.502 2.078.502zm9.345 0c1.04 0 1.9-.27 2.58-.81.68-.54 1.095-1.245 1.245-2.115h-1.11c-.1.63-.4 1.13-.9 1.5-.5.37-1.12.555-1.86.555-.51 0-.985-.11-1.425-.33-.44-.22-.798-.563-1.073-1.028-.274-.465-.417-1.042-.427-1.732h6.78c.04-.23.06-.485.06-.765 0-.66-.153-1.27-.458-1.83-.305-.56-.75-1.007-1.335-1.343-.585-.334-1.277-.502-2.077-.502-.78 0-1.472.168-2.078.502-.605.336-1.077.82-1.417 1.456-.34.635-.51 1.382-.51 2.242 0 .86.17 1.608.51 2.242.34.635.813 1.12 1.417 1.456.606.335 1.298.502 2.078.502zm2.82-4.5h-5.79c.02-.68.167-1.248.442-1.703.276-.454.633-.792 1.073-1.012.44-.22.925-.33 1.455-.33.52 0 1 .11 1.44.33.44.22.79.56 1.05 1.02.26.46.37 1.025.33 1.695zM5.02 25.84c.747 0 1.347-.207 1.8-.62.453-.413.68-.953.68-1.62 0-.667-.227-1.207-.68-1.62-.453-.413-1.053-.62-1.8-.62-.747 0-1.347.207-1.8.62-.453.413-.68.953-.68 1.62 0 .667.227 1.207.68 1.62.453.413 1.053.62 1.8.62zM6.82 52V30.04H3.18V52h3.64z"/>
                <path fill="#FFF" fill-rule="nonzero" d="M45.04 52L45.04 46.48 32.56 46.48 44.96 28.92 44.96 23.72 25.12 23.72 25.12 29.2 37.24 29.2 24.96 46.8 24.96 52z"/>
            </g>
        </g>
    </g>
</svg>
